<svg xmlns="http://www.w3.org/2000/svg" xmlns:xlink="http://www.w3.org/1999/xlink" width="1221" zoomAndPan="magnify" viewBox="0 0 915.75 163.5" height="218" preserveAspectRatio="xMidYMid meet" version="1.0"><defs><g/><clipPath id="f8bcba9aa3"><path d="M 402.890625 27.675781 L 532.722656 27.675781 L 532.722656 163 L 402.890625 163 Z M 402.890625 27.675781 " clip-rule="nonzero"/></clipPath><clipPath id="8b2817a7f7"><path d="M 688.183594 27.902344 L 831.222656 27.902344 L 831.222656 163 L 688.183594 163 Z M 688.183594 27.902344 " clip-rule="nonzero"/></clipPath></defs><g fill="#8cafa2" fill-opacity="1"><g transform="translate(420.051572, 130.724629)"><g><path d="M 43.84375 1.640625 C 40.75 1.640625 37.675781 0.890625 34.625 -0.609375 C 31.570312 -2.117188 28.679688 -4.328125 25.953125 -7.234375 L 25.40625 -7.234375 L 23.90625 0 L 9.28125 0 L 9.28125 -96.03125 L 27.859375 -96.03125 L 27.859375 -72.125 L 27.453125 -61.46875 C 30.179688 -63.832031 33.117188 -65.71875 36.265625 -67.125 C 39.410156 -68.539062 42.578125 -69.25 45.765625 -69.25 C 53.953125 -69.25 60.4375 -66.148438 65.21875 -59.953125 C 70 -53.765625 72.390625 -45.4375 72.390625 -34.96875 C 72.390625 -27.5 71.066406 -20.988281 68.421875 -15.4375 C 65.785156 -9.882812 62.28125 -5.648438 57.90625 -2.734375 C 53.539062 0.179688 48.851562 1.640625 43.84375 1.640625 Z M 39.609375 -13.65625 C 43.617188 -13.65625 46.894531 -15.429688 49.4375 -18.984375 C 51.988281 -22.535156 53.265625 -27.769531 53.265625 -34.6875 C 53.265625 -47.53125 49.03125 -53.953125 40.5625 -53.953125 C 36.375 -53.953125 32.140625 -51.765625 27.859375 -47.390625 L 27.859375 -18.4375 C 31.410156 -15.25 35.328125 -13.65625 39.609375 -13.65625 Z M 39.609375 -13.65625 "/></g></g></g><g fill="#8cafa2" fill-opacity="1"><g transform="translate(497.900564, 130.724629)"><g/></g></g><g clip-path="url(#f8bcba9aa3)"><path fill="#ffffff" d="M 628.8125 -96.953125 L 628.8125 -72.621094 C 517.632812 -72.621094 427.175781 17.980469 427.175781 129.339844 C 427.175781 240.703125 517.632812 331.308594 628.8125 331.308594 L 628.8125 355.636719 C 504.238281 355.636719 402.890625 254.121094 402.890625 129.339844 C 402.890625 4.5625 504.238281 -96.953125 628.8125 -96.953125 Z M 628.8125 -96.953125 " fill-opacity="1" fill-rule="nonzero"/></g><g fill="#cfaaa2" fill-opacity="1"><g transform="translate(704.892344, 127.929723)"><g><path d="M 43.84375 1.640625 C 40.75 1.640625 37.675781 0.890625 34.625 -0.609375 C 31.570312 -2.117188 28.679688 -4.328125 25.953125 -7.234375 L 25.40625 -7.234375 L 23.90625 0 L 9.28125 0 L 9.28125 -96.03125 L 27.859375 -96.03125 L 27.859375 -72.125 L 27.453125 -61.46875 C 30.179688 -63.832031 33.117188 -65.71875 36.265625 -67.125 C 39.410156 -68.539062 42.578125 -69.25 45.765625 -69.25 C 53.953125 -69.25 60.4375 -66.148438 65.21875 -59.953125 C 70 -53.765625 72.390625 -45.4375 72.390625 -34.96875 C 72.390625 -27.5 71.066406 -20.988281 68.421875 -15.4375 C 65.785156 -9.882812 62.28125 -5.648438 57.90625 -2.734375 C 53.539062 0.179688 48.851562 1.640625 43.84375 1.640625 Z M 39.609375 -13.65625 C 43.617188 -13.65625 46.894531 -15.429688 49.4375 -18.984375 C 51.988281 -22.535156 53.265625 -27.769531 53.265625 -34.6875 C 53.265625 -47.53125 49.03125 -53.953125 40.5625 -53.953125 C 36.375 -53.953125 32.140625 -51.765625 27.859375 -47.390625 L 27.859375 -18.4375 C 31.410156 -15.25 35.328125 -13.65625 39.609375 -13.65625 Z M 39.609375 -13.65625 "/></g></g></g><g clip-path="url(#8b2817a7f7)"><path fill="#ffffff" d="M 849.195312 -73.089844 C 760.238281 -73.089844 688.183594 -1.039062 688.183594 87.917969 C 688.183594 176.875 760.238281 248.929688 849.195312 248.929688 C 938.152344 248.929688 1010.203125 176.875 1010.203125 87.917969 C 1010.203125 -1.039062 938.152344 -73.089844 849.195312 -73.089844 Z M 849.195312 216.726562 C 778.027344 216.726562 720.386719 159.085938 720.386719 87.917969 C 720.386719 16.753906 778.027344 -40.886719 849.195312 -40.886719 C 920.359375 -40.886719 978.003906 16.753906 978.003906 87.917969 C 978.003906 159.085938 920.359375 216.726562 849.195312 216.726562 Z M 849.195312 216.726562 " fill-opacity="1" fill-rule="nonzero"/></g><g fill="#909a8c" fill-opacity="1"><g transform="translate(16.238257, 127.969654)"><g><path d="M 43.71875 1.640625 C 40.625 1.640625 37.554688 0.890625 34.515625 -0.609375 C 31.484375 -2.109375 28.601562 -4.3125 25.875 -7.21875 L 25.328125 -7.21875 L 23.828125 0 L 9.265625 0 L 9.265625 -95.734375 L 27.78125 -95.734375 L 27.78125 -71.90625 L 27.375 -61.28125 C 30.09375 -63.644531 33.019531 -65.53125 36.15625 -66.9375 C 39.289062 -68.34375 42.445312 -69.046875 45.625 -69.046875 C 53.789062 -69.046875 60.253906 -65.957031 65.015625 -59.78125 C 69.785156 -53.613281 72.171875 -45.304688 72.171875 -34.859375 C 72.171875 -27.421875 70.851562 -20.929688 68.21875 -15.390625 C 65.59375 -9.847656 62.097656 -5.625 57.734375 -2.71875 C 53.378906 0.1875 48.707031 1.640625 43.71875 1.640625 Z M 39.5 -13.625 C 43.488281 -13.625 46.753906 -15.390625 49.296875 -18.921875 C 51.835938 -22.460938 53.109375 -27.6875 53.109375 -34.59375 C 53.109375 -47.394531 48.890625 -53.796875 40.453125 -53.796875 C 36.273438 -53.796875 32.050781 -51.613281 27.78125 -47.25 L 27.78125 -18.390625 C 31.320312 -15.210938 35.226562 -13.625 39.5 -13.625 Z M 39.5 -13.625 "/></g></g></g><g fill="#909a8c" fill-opacity="1"><g transform="translate(93.864368, 127.969654)"><g><path d="M 65.09375 -36.765625 C 65.09375 -33.316406 64.820312 -30.503906 64.28125 -28.328125 L 22.609375 -28.328125 C 23.515625 -22.972656 25.710938 -19.023438 29.203125 -16.484375 C 32.703125 -13.941406 36.769531 -12.671875 41.40625 -12.671875 C 46.21875 -12.671875 51.207031 -14.164062 56.375 -17.15625 L 62.515625 -5.859375 C 59.148438 -3.492188 55.398438 -1.648438 51.265625 -0.328125 C 47.140625 0.984375 43.035156 1.640625 38.953125 1.640625 C 32.597656 1.640625 26.851562 0.234375 21.71875 -2.578125 C 16.59375 -5.398438 12.550781 -9.488281 9.59375 -14.84375 C 6.644531 -20.195312 5.171875 -26.460938 5.171875 -33.640625 C 5.171875 -40.722656 6.644531 -46.941406 9.59375 -52.296875 C 12.550781 -57.648438 16.4375 -61.78125 21.25 -64.6875 C 26.0625 -67.59375 31.191406 -69.046875 36.640625 -69.046875 C 45.804688 -69.046875 52.835938 -66.070312 57.734375 -60.125 C 62.640625 -54.175781 65.09375 -46.390625 65.09375 -36.765625 Z M 49.15625 -40.71875 C 49.15625 -45.070312 48.15625 -48.5 46.15625 -51 C 44.164062 -53.5 41.128906 -54.75 37.046875 -54.75 C 33.679688 -54.75 30.703125 -53.585938 28.109375 -51.265625 C 25.523438 -48.953125 23.78125 -45.4375 22.875 -40.71875 Z M 49.15625 -40.71875 "/></g></g></g><g fill="#909a8c" fill-opacity="1"><g transform="translate(163.864055, 127.969654)"><g><path d="M 26.015625 1.640625 C 20.023438 1.640625 15.191406 -0.265625 11.515625 -4.078125 C 7.835938 -7.898438 6 -12.710938 6 -18.515625 C 6 -25.691406 9.035156 -31.253906 15.109375 -35.203125 C 21.191406 -39.148438 30.953125 -41.851562 44.390625 -43.3125 C 44.117188 -50.570312 40.398438 -54.203125 33.234375 -54.203125 C 30.421875 -54.203125 27.5625 -53.65625 24.65625 -52.5625 C 21.75 -51.476562 18.566406 -49.9375 15.109375 -47.9375 L 8.4375 -60.1875 C 17.976562 -66.09375 27.421875 -69.046875 36.765625 -69.046875 C 45.390625 -69.046875 51.925781 -66.523438 56.375 -61.484375 C 60.832031 -56.453125 63.0625 -48.941406 63.0625 -38.953125 L 63.0625 0 L 47.796875 0 L 46.4375 -7.078125 L 46.03125 -7.078125 C 39.3125 -1.265625 32.640625 1.640625 26.015625 1.640625 Z M 32.140625 -12.796875 C 34.410156 -12.796875 36.472656 -13.316406 38.328125 -14.359375 C 40.191406 -15.410156 42.210938 -16.976562 44.390625 -19.0625 L 44.390625 -32 C 37.035156 -31 31.769531 -29.5 28.59375 -27.5 C 25.414062 -25.507812 23.828125 -23.015625 23.828125 -20.015625 C 23.828125 -17.660156 24.550781 -15.867188 26 -14.640625 C 27.457031 -13.410156 29.503906 -12.796875 32.140625 -12.796875 Z M 32.140625 -12.796875 "/></g></g></g><g fill="#909a8c" fill-opacity="1"><g transform="translate(235.225608, 127.969654)"><g><path d="M 29.421875 1.640625 C 22.335938 1.640625 17.09375 -0.695312 13.6875 -5.375 C 10.28125 -10.050781 8.578125 -16.75 8.578125 -25.46875 L 8.578125 -67.40625 L 27.09375 -67.40625 L 27.09375 -27.78125 C 27.09375 -22.875 27.816406 -19.398438 29.265625 -17.359375 C 30.722656 -15.316406 33.039062 -14.296875 36.21875 -14.296875 C 38.851562 -14.296875 41.101562 -14.910156 42.96875 -16.140625 C 44.832031 -17.367188 46.894531 -19.429688 49.15625 -22.328125 L 49.15625 -67.40625 L 67.6875 -67.40625 L 67.6875 0 L 52.5625 0 L 51.203125 -9.53125 L 50.65625 -9.53125 C 47.570312 -5.894531 44.347656 -3.125 40.984375 -1.21875 C 37.628906 0.6875 33.773438 1.640625 29.421875 1.640625 Z M 29.421875 1.640625 "/></g></g></g><g fill="#909a8c" fill-opacity="1"><g transform="translate(312.170797, 127.969654)"><g><path d="M 34.453125 1.640625 C 26.648438 1.640625 20.929688 -0.601562 17.296875 -5.09375 C 13.660156 -9.59375 11.84375 -15.882812 11.84375 -23.96875 L 11.84375 -52.703125 L 2.453125 -52.703125 L 2.453125 -66.59375 L 12.796875 -67.40625 L 14.984375 -85.390625 L 30.375 -85.390625 L 30.375 -67.40625 L 46.84375 -67.40625 L 46.84375 -52.703125 L 30.375 -52.703125 L 30.375 -24.109375 C 30.375 -16.753906 33.367188 -13.078125 39.359375 -13.078125 C 41.265625 -13.078125 43.488281 -13.53125 46.03125 -14.4375 L 49.03125 -0.8125 C 44.125 0.820312 39.265625 1.640625 34.453125 1.640625 Z M 34.453125 1.640625 "/></g></g></g><g fill="#909a8c" fill-opacity="1"><g transform="translate(363.376788, 127.969654)"><g><path d="M 15.796875 26.828125 C 12.523438 26.828125 9.394531 26.375 6.40625 25.46875 L 9.8125 11.171875 C 11.71875 11.804688 13.257812 12.125 14.4375 12.125 C 20.425781 12.125 24.507812 8.851562 26.6875 2.3125 L 27.78125 -1.5 L 1.640625 -67.40625 L 20.421875 -67.40625 L 30.640625 -37.046875 C 31.734375 -33.867188 33.003906 -29.644531 34.453125 -24.375 C 35.085938 -21.925781 35.675781 -19.796875 36.21875 -17.984375 L 36.765625 -17.984375 C 37.953125 -23.148438 39.539062 -29.503906 41.53125 -37.046875 L 50.390625 -67.40625 L 68.234375 -67.40625 L 44.53125 1.5 C 41.257812 10.21875 37.488281 16.617188 33.21875 20.703125 C 28.957031 24.785156 23.148438 26.828125 15.796875 26.828125 Z M 15.796875 26.828125 "/></g></g></g><g fill="#909a8c" fill-opacity="1"><g transform="translate(433.232188, 127.969654)"><g/></g></g><g fill="#909a8c" fill-opacity="1"><g transform="translate(460.469418, 127.969654)"><g/></g></g><g fill="#8cafa2" fill-opacity="1"><g transform="translate(487.701947, 127.969654)"><g><path d="M 9.265625 -67.40625 L 24.375 -67.40625 L 25.734375 -55.5625 L 26.28125 -55.5625 C 28.644531 -59.914062 31.53125 -63.25 34.9375 -65.5625 C 38.34375 -67.882812 41.8125 -69.046875 45.34375 -69.046875 C 48.519531 -69.046875 51.15625 -68.59375 53.25 -67.6875 L 50.109375 -51.609375 C 49.835938 -51.703125 49.019531 -51.90625 47.65625 -52.21875 C 46.300781 -52.539062 44.757812 -52.703125 43.03125 -52.703125 C 40.125 -52.703125 37.304688 -51.65625 34.578125 -49.5625 C 31.859375 -47.476562 29.59375 -44.210938 27.78125 -39.765625 L 27.78125 0 L 9.265625 0 Z M 9.265625 -67.40625 "/></g></g></g><g fill="#8cafa2" fill-opacity="1"><g transform="translate(540.814551, 127.969654)"><g><path d="M 37.71875 1.640625 C 31.914062 1.640625 26.535156 0.234375 21.578125 -2.578125 C 16.628906 -5.398438 12.65625 -9.488281 9.65625 -14.84375 C 6.664062 -20.195312 5.171875 -26.460938 5.171875 -33.640625 C 5.171875 -40.898438 6.664062 -47.207031 9.65625 -52.5625 C 12.65625 -57.925781 16.628906 -62.015625 21.578125 -64.828125 C 26.535156 -67.640625 31.914062 -69.046875 37.71875 -69.046875 C 43.4375 -69.046875 48.789062 -67.640625 53.78125 -64.828125 C 58.78125 -62.015625 62.773438 -57.90625 65.765625 -52.5 C 68.765625 -47.09375 70.265625 -40.804688 70.265625 -33.640625 C 70.265625 -26.460938 68.765625 -20.195312 65.765625 -14.84375 C 62.773438 -9.488281 58.78125 -5.398438 53.78125 -2.578125 C 48.789062 0.234375 43.4375 1.640625 37.71875 1.640625 Z M 37.71875 -13.484375 C 41.988281 -13.484375 45.300781 -15.273438 47.65625 -18.859375 C 50.019531 -22.441406 51.203125 -27.367188 51.203125 -33.640625 C 51.203125 -39.898438 50.019531 -44.847656 47.65625 -48.484375 C 45.300781 -52.117188 41.988281 -53.9375 37.71875 -53.9375 C 33.363281 -53.9375 30.023438 -52.117188 27.703125 -48.484375 C 25.390625 -44.847656 24.234375 -39.898438 24.234375 -33.640625 C 24.234375 -27.367188 25.390625 -22.441406 27.703125 -18.859375 C 30.023438 -15.273438 33.363281 -13.484375 37.71875 -13.484375 Z M 37.71875 -13.484375 "/></g></g></g><g fill="#8cafa2" fill-opacity="1"><g transform="translate(616.125494, 127.969654)"><g><path d="M 3.265625 -67.40625 L 21.796875 -67.40625 L 28.875 -35 C 28.96875 -34.539062 29.648438 -30.363281 30.921875 -22.46875 C 31.097656 -20.832031 31.457031 -18.378906 32 -15.109375 L 32.546875 -15.109375 C 34.085938 -23.921875 35.453125 -30.550781 36.640625 -35 L 44.53125 -67.40625 L 60.875 -67.40625 L 68.90625 -35 C 70.363281 -28.820312 71.59375 -23.101562 72.59375 -17.84375 L 73.125 -15.109375 L 73.671875 -15.109375 L 75.3125 -24.78125 C 75.488281 -25.875 75.691406 -27.28125 75.921875 -29 C 76.148438 -30.726562 76.492188 -32.726562 76.953125 -35 L 83.890625 -67.40625 L 101.1875 -67.40625 L 84.703125 0 L 62.921875 0 L 56.109375 -28.46875 C 54.378906 -37.457031 53.15625 -43.992188 52.4375 -48.078125 L 51.890625 -48.078125 C 50.429688 -39.453125 49.203125 -32.867188 48.203125 -28.328125 L 41.8125 0 L 20.421875 0 Z M 3.265625 -67.40625 "/></g></g></g><g fill="#8cafa2" fill-opacity="1"><g transform="translate(720.571262, 127.969654)"><g/></g></g><g fill="#8cafa2" fill-opacity="1"><g transform="translate(747.808491, 127.969654)"><g/></g></g><g fill="#cfaaa2" fill-opacity="1"><g transform="translate(775.041021, 127.969654)"><g><path d="M 26.015625 1.640625 C 20.023438 1.640625 15.191406 -0.265625 11.515625 -4.078125 C 7.835938 -7.898438 6 -12.710938 6 -18.515625 C 6 -25.691406 9.035156 -31.253906 15.109375 -35.203125 C 21.191406 -39.148438 30.953125 -41.851562 44.390625 -43.3125 C 44.117188 -50.570312 40.398438 -54.203125 33.234375 -54.203125 C 30.421875 -54.203125 27.5625 -53.65625 24.65625 -52.5625 C 21.75 -51.476562 18.566406 -49.9375 15.109375 -47.9375 L 8.4375 -60.1875 C 17.976562 -66.09375 27.421875 -69.046875 36.765625 -69.046875 C 45.390625 -69.046875 51.925781 -66.523438 56.375 -61.484375 C 60.832031 -56.453125 63.0625 -48.941406 63.0625 -38.953125 L 63.0625 0 L 47.796875 0 L 46.4375 -7.078125 L 46.03125 -7.078125 C 39.3125 -1.265625 32.640625 1.640625 26.015625 1.640625 Z M 32.140625 -12.796875 C 34.410156 -12.796875 36.472656 -13.316406 38.328125 -14.359375 C 40.191406 -15.410156 42.210938 -16.976562 44.390625 -19.0625 L 44.390625 -32 C 37.035156 -31 31.769531 -29.5 28.59375 -27.5 C 25.414062 -25.507812 23.828125 -23.015625 23.828125 -20.015625 C 23.828125 -17.660156 24.550781 -15.867188 26 -14.640625 C 27.457031 -13.410156 29.503906 -12.796875 32.140625 -12.796875 Z M 32.140625 -12.796875 "/></g></g></g><g fill="#cfaaa2" fill-opacity="1"><g transform="translate(846.402563, 127.969654)"><g><path d="M 9.265625 -67.40625 L 24.375 -67.40625 L 25.734375 -55.5625 L 26.28125 -55.5625 C 28.644531 -59.914062 31.53125 -63.25 34.9375 -65.5625 C 38.34375 -67.882812 41.8125 -69.046875 45.34375 -69.046875 C 48.519531 -69.046875 51.15625 -68.59375 53.25 -67.6875 L 50.109375 -51.609375 C 49.835938 -51.703125 49.019531 -51.90625 47.65625 -52.21875 C 46.300781 -52.539062 44.757812 -52.703125 43.03125 -52.703125 C 40.125 -52.703125 37.304688 -51.65625 34.578125 -49.5625 C 31.859375 -47.476562 29.59375 -44.210938 27.78125 -39.765625 L 27.78125 0 L 9.265625 0 Z M 9.265625 -67.40625 "/></g></g></g></svg>